<mxfile host="app.diagrams.net" modified="2023-01-14T03:36:12.583Z" agent="5.0 (Macintosh; Intel Mac OS X 10_13_6) AppleWebKit/605.1.15 (KHTML, like Gecko) Version/13.1.2 Safari/605.1.15" etag="7MmxpJduSs_1m4VqIlKw" version="20.8.5" type="github">
  <diagram id="xb8P4gNRCWOiyWY3lECt" name="第 1 页">
    <mxGraphModel dx="1434" dy="1078" grid="0" gridSize="10" guides="1" tooltips="1" connect="1" arrows="1" fold="1" page="1" pageScale="1" pageWidth="827" pageHeight="1169" math="0" shadow="0">
      <root>
        <mxCell id="0" />
        <mxCell id="1" parent="0" />
        <mxCell id="TwxXEa0ajLt5vSesdO_o-16" value="12" style="whiteSpace=wrap;html=1;aspect=fixed;direction=south;fillColor=#b1ddf0;strokeColor=#10739e;" parent="1" vertex="1">
          <mxGeometry x="120" width="30" height="30" as="geometry" />
        </mxCell>
        <mxCell id="TwxXEa0ajLt5vSesdO_o-17" value="13" style="whiteSpace=wrap;html=1;aspect=fixed;direction=south;" parent="1" vertex="1">
          <mxGeometry x="150" width="30" height="30" as="geometry" />
        </mxCell>
        <mxCell id="TwxXEa0ajLt5vSesdO_o-65" value="4" style="text;html=1;strokeColor=none;fillColor=none;align=center;verticalAlign=middle;whiteSpace=wrap;rounded=0;fontSize=16;" parent="1" vertex="1">
          <mxGeometry x="124" y="40" width="22" height="13" as="geometry" />
        </mxCell>
        <mxCell id="TwxXEa0ajLt5vSesdO_o-66" value="5" style="text;html=1;strokeColor=none;fillColor=none;align=center;verticalAlign=middle;whiteSpace=wrap;rounded=0;fontSize=16;" parent="1" vertex="1">
          <mxGeometry x="154" y="40" width="22" height="13" as="geometry" />
        </mxCell>
      </root>
    </mxGraphModel>
  </diagram>
</mxfile>
